<svg width="82" height="82" viewBox="0 0 82 82" fill="none" xmlns="http://www.w3.org/2000/svg">
<path d="M79.695 73.305L64.395 58.05C69.3314 51.7611 72.01 43.995 72 36C72 28.8799 69.8887 21.9197 65.9329 15.9995C61.9772 10.0793 56.3548 5.46511 49.7766 2.74035C43.1985 0.0155981 35.9601 -0.697322 28.9768 0.691746C21.9935 2.08081 15.5789 5.50948 10.5442 10.5442C5.50948 15.5789 2.08081 21.9935 0.691746 28.9768C-0.697322 35.9601 0.0155981 43.1985 2.74035 49.7766C5.46511 56.3548 10.0793 61.9772 15.9995 65.9329C21.9197 69.8887 28.8799 72 36 72C43.995 72.01 51.7611 69.3314 58.05 64.395L73.305 79.695C73.7234 80.1168 74.2211 80.4516 74.7694 80.68C75.3178 80.9085 75.906 81.0261 76.5 81.0261C77.0941 81.0261 77.6823 80.9085 78.2306 80.68C78.779 80.4516 79.2767 80.1168 79.695 79.695C80.1168 79.2767 80.4516 78.779 80.68 78.2306C80.9085 77.6823 81.0261 77.0941 81.0261 76.5C81.0261 75.906 80.9085 75.3178 80.68 74.7694C80.4516 74.2211 80.1168 73.7234 79.695 73.305ZM9.00002 36C9.00002 30.6599 10.5835 25.4397 13.5503 20.9996C16.5171 16.5595 20.734 13.0988 25.6676 11.0553C30.6012 9.0117 36.03 8.47701 41.2675 9.51881C46.5049 10.5606 51.3159 13.1321 55.0919 16.9081C58.8679 20.6842 61.4394 25.4951 62.4812 30.7326C63.523 35.9701 62.9883 41.3989 60.9448 46.3325C58.9012 51.2661 55.4405 55.4829 51.0004 58.4497C46.5603 61.4165 41.3401 63 36 63C28.8392 63 21.9716 60.1554 16.9081 55.0919C11.8447 50.0284 9.00002 43.1609 9.00002 36Z" fill="white"/>
</svg>
