<svg width="86" height="100" viewBox="0 0 86 100" fill="none" xmlns="http://www.w3.org/2000/svg">
<path d="M76 23.75H66.5C66.5 10.45 56.05 0 42.75 0C29.45 0 19 10.45 19 23.75H9.5C4.275 23.75 0 28.025 0 33.25V90.25C0 95.475 4.275 99.75 9.5 99.75H76C81.225 99.75 85.5 95.475 85.5 90.25V33.25C85.5 28.025 81.225 23.75 76 23.75ZM42.75 9.5C50.825 9.5 57 15.675 57 23.75H28.5C28.5 15.675 34.675 9.5 42.75 9.5ZM76 90.25H9.5V33.25H76V90.25ZM42.75 52.25C34.675 52.25 28.5 46.075 28.5 38H19C19 51.3 29.45 61.75 42.75 61.75C56.05 61.75 66.5 51.3 66.5 38H57C57 46.075 50.825 52.25 42.75 52.25Z" fill="white"/>
</svg>
